<svg width="28" height="35" viewBox="0 0 28 35" fill="none" xmlns="http://www.w3.org/2000/svg">
<g clip-path="url(#clip0_21_6)">
<path d="M9.08827 29.811C7.49593 28.3656 7.0311 25.3287 7.6945 23.1285C8.84481 24.5157 10.4387 24.9551 12.0896 25.2032C14.6382 25.5859 17.1412 25.4428 19.5088 24.286C19.7797 24.1536 20.03 23.9775 20.3259 23.7991C20.548 24.4391 20.6059 25.0852 20.5283 25.7428C20.3396 27.3444 19.537 28.5815 18.2604 29.5193C17.7499 29.8944 17.2097 30.2297 16.6825 30.5834C15.0627 31.6705 14.6245 32.9451 15.2332 34.7991C15.2476 34.8446 15.2606 34.8898 15.2933 35C14.4663 34.6323 13.8622 34.0972 13.402 33.3936C12.9158 32.6512 12.6845 31.8297 12.6723 30.9409C12.6662 30.5084 12.6662 30.072 12.6077 29.6456C12.4646 28.606 11.9732 28.1405 11.0473 28.1138C10.0971 28.0862 9.34541 28.6695 9.14609 29.5882C9.13087 29.6586 9.1088 29.7283 9.08673 29.8102L9.08827 29.811Z" fill="white"/>
<path d="M9.08827 29.811C7.49593 28.3656 7.0311 25.3287 7.6945 23.1285C8.84481 24.5157 10.4387 24.9551 12.0896 25.2032C14.6382 25.5859 17.1412 25.4428 19.5088 24.286C19.7797 24.1536 20.03 23.9775 20.3259 23.7991C20.548 24.4391 20.6059 25.0852 20.5283 25.7428C20.3396 27.3444 19.537 28.5815 18.2604 29.5193C17.7499 29.8944 17.2097 30.2297 16.6825 30.5834C15.0627 31.6705 14.6245 32.9451 15.2332 34.7991C15.2476 34.8446 15.2606 34.8898 15.2933 35C14.4663 34.6323 13.8622 34.0972 13.402 33.3936C12.9158 32.6512 12.6845 31.8297 12.6723 30.9409C12.6662 30.5084 12.6662 30.072 12.6077 29.6456C12.4646 28.606 11.9732 28.1405 11.0473 28.1138C10.0971 28.0862 9.34541 28.6695 9.14609 29.5882C9.13087 29.6586 9.1088 29.7283 9.08673 29.8102L9.08827 29.811Z" fill="url(#paint0_linear_21_6)"/>
<path d="M0 22.762C0 22.762 4.71517 20.4811 9.44351 20.4811L13.0085 9.52536C13.142 8.99556 13.5317 8.63548 13.9716 8.63548C14.4116 8.63548 14.8013 8.99556 14.9348 9.52536L18.4998 20.4811C24.0998 20.4811 27.9433 22.762 27.9433 22.762C27.9433 22.762 19.9342 1.09656 19.9185 1.05309C19.6887 0.412542 19.3006 0 18.7774 0H9.16667C8.6435 0 8.2711 0.412542 8.02559 1.05309C8.00826 1.09574 0 22.762 0 22.762Z" fill="black"/>
</g>
<defs>
<linearGradient id="paint0_linear_21_6" x1="7.40195" y1="35" x2="22.7376" y2="27.703" gradientUnits="userSpaceOnUse">
<stop stop-color="#D83333"/>
<stop offset="1" stop-color="#F041FF"/>
</linearGradient>
<clipPath id="clip0_21_6">
<rect width="28" height="35" fill="white"/>
</clipPath>
</defs>
</svg>
