<svg width="51" height="64" viewBox="0 0 51 64" fill="none" xmlns="http://www.w3.org/2000/svg">
<g clip-path="url(#clip0_21_10)">
<path d="M16.5536 54.5115C13.6533 51.8686 12.8066 46.3154 14.015 42.2921C16.1102 44.8287 19.0133 45.6322 22.0203 46.0858C26.6624 46.7857 31.2215 46.5239 35.5339 44.4088C36.0272 44.1666 36.4831 43.8446 37.0222 43.5184C37.4268 44.6887 37.5321 45.8702 37.3907 47.0726C37.0471 50.0012 35.5852 52.2633 33.2599 53.9782C32.3301 54.6641 31.3462 55.2773 30.3859 55.924C27.4357 57.9118 26.6375 60.2425 27.7461 63.6327C27.7724 63.7159 27.796 63.7984 27.8556 64C26.3493 63.3277 25.249 62.3491 24.4106 61.0626C23.5252 59.705 23.1039 58.203 23.0818 56.5777C23.0707 55.7868 23.0707 54.9888 22.964 54.2091C22.7035 52.3081 21.8083 51.457 20.1218 51.408C18.3911 51.3577 17.022 52.4243 16.6589 54.1042C16.6312 54.2329 16.591 54.3603 16.5508 54.5101L16.5536 54.5115Z" fill="#E3E3E3"/>
<path d="M0 41.6219C0 41.6219 8.58834 37.4512 17.2007 37.4512L23.6941 17.4178C23.9372 16.449 24.647 15.7906 25.4483 15.7906C26.2497 15.7906 26.9595 16.449 27.2026 17.4178L33.6961 37.4512C43.8961 37.4512 50.8967 41.6219 50.8967 41.6219C50.8967 41.6219 36.3087 2.00513 36.2802 1.92565C35.8615 0.754363 35.1547 0 34.2017 0H16.6964C15.7435 0 15.0652 0.754363 14.618 1.92565C14.5865 2.00364 0 41.6219 0 41.6219Z" fill="#E3E3E3"/>
</g>
<defs>
<clipPath id="clip0_21_10">
<rect width="51" height="64" fill="white"/>
</clipPath>
</defs>
</svg>
